<svg id="visual" viewBox="0 0 900 600" width="900" height="600" xmlns="http://www.w3.org/2000/svg" xmlns:xlink="http://www.w3.org/1999/xlink" version="1.1"><g><g transform="translate(654 260)"><path d="M83.2 -27.5C95.5 10.8 84.7 56.2 54 79.8C23.3 103.4 -27.2 105.1 -61.7 81C-96.3 56.8 -115 6.7 -102.1 -32.5C-89.1 -71.7 -44.6 -100 -4.6 -98.6C35.4 -97.1 70.9 -65.8 83.2 -27.5Z" fill="none" stroke="#009473" stroke-width="20"></path></g><g transform="translate(62 176)"><path d="M78.3 -23.7C88.8 6.8 75.9 46.7 48.5 66.5C21.2 86.3 -20.6 86 -50 65.5C-79.4 44.9 -96.5 4 -86.1 -26.4C-75.7 -56.7 -37.8 -76.6 -2 -75.9C33.9 -75.3 67.8 -54.2 78.3 -23.7Z" fill="none" stroke="#009473" stroke-width="20"></path></g><g transform="translate(248 565)"><path d="M74.8 -26.4C84 4 69.6 40 41.5 61.4C13.4 82.8 -28.4 89.7 -52.4 72.2C-76.5 54.7 -82.8 12.9 -71.1 -21C-59.4 -54.8 -29.7 -80.7 1.6 -81.2C32.8 -81.7 65.6 -56.9 74.8 -26.4Z" fill="none" stroke="#009473" stroke-width="20"></path></g></g></svg>