<svg id="visual" viewBox="0 0 900 600" width="900" height="600" xmlns="http://www.w3.org/2000/svg" xmlns:xlink="http://www.w3.org/1999/xlink" version="1.1"><g><g transform="translate(240 44)"><path d="M102 -33.7C115.3 7.9 97.6 59 63.3 82.9C28.9 106.9 -22.1 103.8 -58.7 77.9C-95.3 52 -117.5 3.3 -105.3 -36.8C-93.1 -76.8 -46.6 -108.2 -1.1 -107.8C44.3 -107.5 88.7 -75.3 102 -33.7Z" fill="none" stroke="#009473" stroke-width="20"></path></g><g transform="translate(714 186)"><path d="M48.3 -16.6C55.7 7 50 33.9 33.2 46.2C16.5 58.5 -11.3 56.2 -30.7 42.1C-50.2 28 -61.2 2.3 -54.7 -20.1C-48.2 -42.5 -24.1 -61.4 -1.8 -60.8C20.5 -60.2 41 -40.1 48.3 -16.6Z" fill="none" stroke="#009473" stroke-width="20"></path></g><g transform="translate(862 447)"><path d="M52.9 -18.2C60.5 6.2 53 34.5 34.6 47.9C16.2 61.3 -13.1 59.9 -34.2 45C-55.4 30.2 -68.3 1.9 -61.2 -21.8C-54.2 -45.5 -27.1 -64.7 -2.2 -64C22.6 -63.3 45.3 -42.7 52.9 -18.2Z" fill="none" stroke="#009473" stroke-width="20"></path></g></g></svg>