<svg id="visual" viewBox="0 0 900 600" width="900" height="600" xmlns="http://www.w3.org/2000/svg" xmlns:xlink="http://www.w3.org/1999/xlink" version="1.1"><g><g transform="translate(599 158)"><path d="M99.6 -33.6C112.9 8.7 96.5 59.5 61.9 84.4C27.4 109.3 -25.4 108.4 -61 82.8C-96.6 57.2 -115.1 6.9 -102.1 -35C-89.1 -76.8 -44.5 -110.2 -0.7 -110C43.1 -109.7 86.2 -75.9 99.6 -33.6Z" fill="none" stroke="#009473" stroke-width="20"></path></g><g transform="translate(113 324)"><path d="M80.5 -30C91.1 6.4 77.3 47 48.6 68.2C19.8 89.4 -23.9 91.2 -51.5 71.1C-79 51 -90.4 9 -79.2 -28.5C-67.9 -65.9 -33.9 -98.7 0.5 -98.8C35 -99 69.9 -66.5 80.5 -30Z" fill="none" stroke="#009473" stroke-width="20"></path></g><g transform="translate(427 402)"><path d="M90 -25.7C103.1 11.1 90.9 59.7 60.7 81.1C30.5 102.4 -17.7 96.6 -52.2 71.6C-86.7 46.6 -107.5 2.5 -96.5 -31.4C-85.5 -65.3 -42.7 -88.9 -2.2 -88.2C38.4 -87.5 76.9 -62.5 90 -25.7Z" fill="none" stroke="#009473" stroke-width="20"></path></g></g></svg>